<svg xmlns="http://www.w3.org/2000/svg" width="1280" height="720" viewBox="0 0 1280 720" role="img"><title>Sediment changes clarity and substrate</title><desc>Suspended particles and deposited material produce different effects.</desc><defs><marker id="a" viewBox="0 0 10 10" refX="9" refY="5" markerWidth="8" markerHeight="8" orient="auto"><path d="M0 0L10 5L0 10Z" fill="#183f36"/></marker></defs><rect x="0" y="0" width="1280" height="720" fill="#f2efe3"/><text x="60" y="55" font-family="Segoe UI,Arial" font-size="16" fill="#183f36" text-anchor="start">OLYMPIC · FIELD DIAGRAM</text><text x="60" y="112" font-family="Segoe UI,Arial" font-size="37" fill="#183f36" text-anchor="start">Sediment changes clarity and substrate</text><text x="60" y="152" font-family="Segoe UI,Arial" font-size="20" fill="#183f36" text-anchor="start">Suspended particles and deposited material produce different effects.</text><rect x="70" y="220" width="1140" height="390" fill="#a9cbd0"/><path d="M70 220H600Q650 330 600 400Q555 495 570 610H70Z" fill="#b7c4a1" stroke="#183f36" stroke-width="3" stroke-linejoin="round" stroke-linecap="round" /><path d="M275 220Q380 270 400 335Q420 410 585 435L615 470Q455 445 400 400Q345 355 350 310Q325 270 250 250Z" fill="#79abb6" stroke="none" stroke-width="3" stroke-linejoin="round" stroke-linecap="round" /><path d="M585 435Q750 340 975 445Q895 545 615 470Z" fill="#d4bd8c" stroke="none" stroke-width="3" stroke-linejoin="round" stroke-linecap="round" /><text x="115" y="515" font-family="Segoe UI,Arial" font-size="24" fill="#183f36" text-anchor="start">Watershed</text><text x="880" y="280" font-family="Segoe UI,Arial" font-size="24" fill="#183f36" text-anchor="start">Coastal water</text><text x="720" y="570" font-family="Segoe UI,Arial" font-size="23" fill="#183f36" text-anchor="start">Dispersing sediment plume</text><path d="M435 387L573 434" fill="none" stroke="#183f36" stroke-width="3" stroke-linejoin="round" stroke-linecap="round" marker-end="url(#a)"/><path d="M60 654H1220" fill="none" stroke="#b5bfa9" stroke-width="1" stroke-linejoin="round" stroke-linecap="round" /><text x="60" y="691" font-family="Segoe UI,Arial" font-size="16" fill="#183f36" text-anchor="start">Conceptual illustration · Not measured data, a species identification key or a geographic map</text></svg>